<svg t="1745592535145" class="icon" viewBox="0 0 1024 1024" version="1.1" xmlns="http://www.w3.org/2000/svg" p-id="10715" width="12" height="12"><path d="M800.995556 59.050667a115.370667 115.370667 0 0 1 149.390222 145.436444L707.697778 914.318222a115.370667 115.370667 0 0 1-221.070222-9.301333L409.770667 598.186667l-292.408889-56.576a115.370667 115.370667 0 0 1-83.854222-67.157334l-2.360889-5.859555a115.370667 115.370667 0 0 1 67.896889-148.366222L800.995556 59.050667z m45.568 92.529777a16.497778 16.497778 0 0 0-11.093334 0.142223L133.546667 412.899556a16.497778 16.497778 0 0 0 2.616889 31.630222l297.728 57.628444 138.183111-138.126222a49.436444 49.436444 0 0 1 73.102222 66.389333l-3.185778 3.527111-137.073778 137.016889 77.653334 310.044445c1.991111 7.936 9.386667 13.084444 17.322666 12.401778l2.645334-0.426667a16.497778 16.497778 0 0 0 11.576889-10.666667l242.744888-709.802666a16.497778 16.497778 0 0 0-10.24-20.935112z" fill="#FFFFFF" p-id="10716"></path></svg>