<svg t="1745597823337" class="icon" viewBox="0 0 1024 1024" version="1.1" xmlns="http://www.w3.org/2000/svg" p-id="12652" width="14" height="14"><path d="M373.620364 221.090909h-7.912728c4.352 0 7.912727-4.072727 7.912728-9.053091V221.090909h300.032v-9.053091c0 4.980364 3.560727 9.053091 7.912727 9.053091h-7.912727V302.545455H744.727273V212.037818C744.727273 172.101818 716.404364 139.636364 681.565091 139.636364H365.707636C330.868364 139.636364 302.545455 172.101818 302.545455 212.037818V302.545455h71.074909V221.090909z" fill="#333333" p-id="12653"></path><path d="M853.341091 302.545455H170.658909C153.506909 302.545455 139.636364 315.741091 139.636364 332.055273v29.533091c0 4.049455 3.490909 7.377455 7.749818 7.377454H205.963636l23.970909 482.397091C231.447273 882.827636 258.792727 907.636364 291.863273 907.636364h440.226909c33.163636 0 60.416-24.715636 61.975273-56.273455l23.947636-482.397091h58.577454a7.586909 7.586909 0 0 0 7.749819-7.377454v-29.533091c0-16.314182-13.870545-29.509818-31.022546-29.509818z m-128.698182 538.670545H299.357091l-23.482182-472.250182h472.250182l-23.482182 472.250182z" fill="#333333" p-id="12654"></path></svg>