<svg t="1707225590040" class="icon" viewBox="0 0 1024 1024" version="1.1" xmlns="http://www.w3.org/2000/svg" p-id="15032" width="200" height="200"><path d="M618.666667 170.666667a320 320 0 1 1-87.04 628.053333 339.498667 339.498667 0 0 0 62.293333-153.002667l81.322667 14.336a12.8 12.8 0 0 0 13.824-18.005333l-91.904-197.205333a12.8 12.8 0 0 0-20.650667-3.626667l-153.813333 153.856a12.8 12.8 0 0 0 6.826666 21.632l79.872 14.08a212.736 212.736 0 0 1-68.821333 125.781333 213.333333 213.333333 0 1 1-123.946667-371.84A320.042667 320.042667 0 0 1 618.666667 170.666667z" fill="#EE722E" p-id="15033"></path></svg>
