<svg t="1707225791174" class="icon" viewBox="0 0 1024 1024" version="1.1" xmlns="http://www.w3.org/2000/svg" p-id="22376" width="200" height="200"><path d="M844.071425 721.353274H179.979793a40.308508 40.308508 0 0 1-40.308508-40.154855V209.993498a40.308508 40.308508 0 0 1 40.308508-40.308508h204.871705L435.352373 251.992197h412.304307a36.672035 36.672035 0 0 1 36.672035 36.723253V681.198419a40.308508 40.308508 0 0 1-40.25729 40.154855zM490.77017 745.425699h42.45966v93.933677h-42.45966z" fill="#FFB529" p-id="22377"></path><path d="M327.641074 818.769769h368.76907v35.596459h-368.76907z" fill="#FFB529" p-id="22378"></path><path d="M265.974691 527.544641l19.25794-23.96999a56.851898 56.851898 0 0 0 34.520883 14.801981c12.59961 0 18.540889-4.865703 18.540889-12.650828s-7.836343-11.063072-20.077427-16.338518l-18.079928-7.631471c-14.904417-6.043715-28.682039-18.694543-28.682039-39.693893 0-24.328515 21.357875-43.791327 51.525234-43.791327a65.302856 65.302856 0 0 1 46.096134 19.053068l-16.953134 21.818837A45.583954 45.583954 0 0 0 322.672936 428.02821c-10.499675 0-17.004352 4.302306-17.004352 12.08743s8.963137 11.11429 21.562747 16.133647l17.77262 7.221728c17.516531 7.17051 28.016206 19.25794 28.016206 39.693893 0 24.123643-19.821337 45.327865-54.188566 45.327864A78.721953 78.721953 0 0 1 265.974691 527.544641zM405.031361 400.985145h90.604512v28.835692h-56.339719v31.703897h48.298504v28.989346h-48.452158v55.264142h-34.111139zM555.868154 429.820837h-38.311009v-28.835692h110.989246v28.835692h-38.51588v115.957385h-34.162357zM658.662532 400.985145h49.835042c31.242935 0 57.005552 11.319162 57.005552 47.120492 0 34.418446-26.121142 49.630171-56.339719 49.630171h-16.594608v48.042414h-33.906267z m49.066773 69.297854c16.594608 0 24.584605-7.989996 24.584605-22.177362s-9.168009-19.667684-25.608963-19.667684h-13.931276v41.845046z" fill="#FFFFFF" p-id="22379"></path></svg>
